<?xml version="1.0" standalone="no"?><svg xmlns="http://www.w3.org/2000/svg" viewBox="0 0 1440 320"><path fill="#606c38" fill-opacity="1" d="M0,160L16,144C32,128,64,96,96,85.3C128,75,160,85,192,96C224,107,256,117,288,117.3C320,117,352,107,384,90.7C416,75,448,53,480,42.7C512,32,544,32,576,32C608,32,640,32,672,42.7C704,53,736,75,768,117.3C800,160,832,224,864,250.7C896,277,928,267,960,266.7C992,267,1024,277,1056,272C1088,267,1120,245,1152,234.7C1184,224,1216,224,1248,197.3C1280,171,1312,117,1344,80C1376,43,1408,21,1424,10.7L1440,0L1440,0L1424,0C1408,0,1376,0,1344,0C1312,0,1280,0,1248,0C1216,0,1184,0,1152,0C1120,0,1088,0,1056,0C1024,0,992,0,960,0C928,0,896,0,864,0C832,0,800,0,768,0C736,0,704,0,672,0C640,0,608,0,576,0C544,0,512,0,480,0C448,0,416,0,384,0C352,0,320,0,288,0C256,0,224,0,192,0C160,0,128,0,96,0C64,0,32,0,16,0L0,0Z"></path></svg>