<?xml version="1.0" standalone="no"?><svg xmlns="http://www.w3.org/2000/svg" viewBox="0 0 1440 320"><path fill="#58788c" fill-opacity="1" d="M0,64L16,64C32,64,64,64,96,106.7C128,149,160,235,192,261.3C224,288,256,256,288,240C320,224,352,224,384,218.7C416,213,448,203,480,176C512,149,544,107,576,112C608,117,640,171,672,186.7C704,203,736,181,768,197.3C800,213,832,267,864,277.3C896,288,928,256,960,229.3C992,203,1024,181,1056,149.3C1088,117,1120,75,1152,69.3C1184,64,1216,96,1248,106.7C1280,117,1312,107,1344,106.7C1376,107,1408,117,1424,122.7L1440,128L1440,320L1424,320C1408,320,1376,320,1344,320C1312,320,1280,320,1248,320C1216,320,1184,320,1152,320C1120,320,1088,320,1056,320C1024,320,992,320,960,320C928,320,896,320,864,320C832,320,800,320,768,320C736,320,704,320,672,320C640,320,608,320,576,320C544,320,512,320,480,320C448,320,416,320,384,320C352,320,320,320,288,320C256,320,224,320,192,320C160,320,128,320,96,320C64,320,32,320,16,320L0,320Z"></path></svg>