<svg id="visual" viewBox="0 0 900 100" width="900" height="100" xmlns="http://www.w3.org/2000/svg" xmlns:xlink="http://www.w3.org/1999/xlink" version="1.1"><path d="M0 46L15 49.5C30 53 60 60 90 60.5C120 61 150 55 180 57.2C210 59.3 240 69.7 270 70.7C300 71.7 330 63.3 360 60.3C390 57.3 420 59.7 450 58.3C480 57 510 52 540 49.5C570 47 600 47 630 49.8C660 52.7 690 58.3 720 62.8C750 67.3 780 70.7 810 67.7C840 64.7 870 55.3 885 50.7L900 46L900 0L885 0C870 0 840 0 810 0C780 0 750 0 720 0C690 0 660 0 630 0C600 0 570 0 540 0C510 0 480 0 450 0C420 0 390 0 360 0C330 0 300 0 270 0C240 0 210 0 180 0C150 0 120 0 90 0C60 0 30 0 15 0L0 0Z" fill="#283618"></path><path d="M0 43L15 40.5C30 38 60 33 90 35C120 37 150 46 180 46.7C210 47.3 240 39.7 270 35.8C300 32 330 32 360 32.7C390 33.3 420 34.7 450 37C480 39.3 510 42.7 540 41.5C570 40.3 600 34.7 630 34.7C660 34.7 690 40.3 720 42.2C750 44 780 42 810 40.5C840 39 870 38 885 37.5L900 37L900 0L885 0C870 0 840 0 810 0C780 0 750 0 720 0C690 0 660 0 630 0C600 0 570 0 540 0C510 0 480 0 450 0C420 0 390 0 360 0C330 0 300 0 270 0C240 0 210 0 180 0C150 0 120 0 90 0C60 0 30 0 15 0L0 0Z" fill="#425028"></path><path d="M0 30L15 30.2C30 30.3 60 30.7 90 29C120 27.3 150 23.7 180 22C210 20.3 240 20.7 270 21.5C300 22.3 330 23.7 360 23.2C390 22.7 420 20.3 450 19.5C480 18.7 510 19.3 540 21.8C570 24.3 600 28.7 630 31C660 33.3 690 33.7 720 32.3C750 31 780 28 810 27.8C840 27.7 870 30.3 885 31.7L900 33L900 0L885 0C870 0 840 0 810 0C780 0 750 0 720 0C690 0 660 0 630 0C600 0 570 0 540 0C510 0 480 0 450 0C420 0 390 0 360 0C330 0 300 0 270 0C240 0 210 0 180 0C150 0 120 0 90 0C60 0 30 0 15 0L0 0Z" fill="#606c38"></path></svg>